<?xml version="1.0" encoding="UTF-8" standalone="no"?>
<!DOCTYPE svg PUBLIC "-//W3C//DTD SVG 1.1//EN" "http://www.w3.org/Graphics/SVG/1.1/DTD/svg11.dtd">
<svg width="100%" height="100%" viewBox="0 0 600 600" version="1.1" xmlns="http://www.w3.org/2000/svg" xmlns:xlink="http://www.w3.org/1999/xlink" xml:space="preserve" xmlns:serif="http://www.serif.com/" style="fill-rule:evenodd;clip-rule:evenodd;stroke-linejoin:round;stroke-miterlimit:2;">
    <g transform="matrix(0.246305,0,0,0.533333,3.92024e-14,0)">
        <path d="M2436,0L2436,1125L0,1125L0,0L2436,0ZM2002.62,202.603C1988.62,205.2 1978.06,208.951 1970.94,213.854C1963.82,218.757 1960.27,224.575 1960.27,231.306C1960.27,242.756 1968.56,251.489 1985.14,257.505C2001.73,263.522 2022.02,266.53 2046.01,266.53C2072.63,266.53 2093.24,263.045 2107.81,256.074C2122.39,249.104 2129.68,240.609 2129.68,230.591C2129.68,222.11 2124.23,215.219 2113.32,209.918C2107.47,207.109 2099.43,204.617 2089.22,202.444C2098.4,200.059 2105.17,197.62 2109.53,195.129C2117.34,190.73 2121.24,184.978 2121.24,177.875C2121.24,170.189 2114.53,163.471 2101.1,157.719C2087.67,151.968 2069.13,149.092 2045.49,149.092C2021.04,149.092 2002.16,152.14 1988.85,158.236C1975.53,164.332 1968.87,171.62 1968.87,180.102C1968.87,186.887 1973.41,192.399 1982.48,196.64C1987.3,198.919 1994.01,200.907 2002.62,202.603ZM2046.69,253.49C2028.79,253.49 2015.56,251.33 2007.01,247.01C1998.46,242.69 1994.18,237.561 1994.18,231.625C1994.18,224.734 1998.86,219.34 2008.21,215.444C2017.57,211.548 2029.65,209.6 2044.46,209.6C2059.72,209.6 2072.23,211.508 2081.99,215.325C2091.74,219.141 2096.62,224.734 2096.62,232.102C2096.62,239.205 2091.89,244.545 2082.42,248.123C2072.95,251.701 2061.04,253.49 2046.69,253.49ZM2044.8,197.117C2033.09,197.117 2022.93,195.606 2014.33,192.585C2005.72,189.563 2001.41,185.376 2001.41,180.022C2001.41,175.251 2004.74,171.09 2011.4,167.539C2018.06,163.987 2028.85,162.212 2043.77,162.212C2058.8,162.212 2069.99,163.987 2077.34,167.539C2084.68,171.09 2088.36,174.986 2088.36,179.227C2088.36,184.104 2084.51,188.304 2076.82,191.829C2069.13,195.354 2058.46,197.117 2044.8,197.117ZM901.462,289.32L504.533,776.27L650.959,776.27L765.085,630.417L1182.11,630.417L1289.06,776.27L1445.53,776.27L1062.96,289.32L901.462,289.32ZM1136.17,576.716L805.998,576.716L976.11,361.583L1136.17,576.716ZM1561.81,421.25L1561.81,776.27L1691.01,776.27L1691.01,572.076C1691.01,546.883 1708.48,524.618 1743.41,505.282C1778.34,485.945 1828.35,476.277 1893.42,476.277C1901.08,476.277 1908.14,476.387 1914.6,476.608C1921.06,476.829 1928.12,477.271 1935.77,477.934L1935.77,414.952C1921.9,414.289 1912.09,413.847 1906.35,413.626C1900.6,413.405 1896.54,413.295 1894.14,413.295C1842.94,413.295 1797.72,421.858 1758.48,438.985C1719.25,456.111 1694.6,470.641 1684.55,482.575L1684.55,421.25L1561.81,421.25ZM1786.55,182.646L1844.57,182.646L1844.57,263.27L1877.62,263.27L1877.62,149.888L1853.18,149.888C1848.82,158.687 1842.22,164.266 1833.38,166.625C1824.54,168.983 1808.93,170.666 1786.55,171.673L1786.55,182.646Z" style="fill:rgb(138,43,226);"/>
    </g>
</svg>
